# xmcd
#
# Track frame offsets:
#	150
#	14612
#	31449
#	45166
#	66040
#	84941
#	100310
#	131858
#	160164
#	192069
#	218210
#	233274
#
# Disc length: 3468 seconds
#
# Revision: 2
# Processed by: cddbd v1.5.2PL0 Copyright (c) Steve Scherf et al.
# Submitted via: audiograbber 1.83.01
#
DISCID=910d8a0c
DTITLE=Miles Davis - Quadromania, CD 2
DYEAR=1952
DGENRE=Jazz
TTITLE0=Donna
TTITLE1=Yesterdays
TTITLE2=Chance It
TTITLE3=How Deep Is The Ocean
TTITLE4=Dear Old Stockholm
TTITLE5=Woody 'N You
TTITLE6=The Serpent's Tooth (Take 1)
TTITLE7=The Serpent's Tooth (Take 2)
TTITLE8='Round Midnight
TTITLE9=Compulsion
TTITLE10=Tasty Pudding
TTITLE11=Floppy
EXTD=YEAR: 2005\nQuadromania Jazz Edition
EXTT0=
EXTT1=
EXTT2=
EXTT3=
EXTT4=
EXTT5=
EXTT6=
EXTT7=
EXTT8=
EXTT9=
EXTT10=
EXTT11=
PLAYORDER=
